# Blender v2.79 (sub 0) OBJ File: ''
# www.blender.org
mtllib chest.mtl
o Cube
v -1.000000 -1.000000 1.000000
v -1.000000 1.000000 1.000000
v -1.000000 -1.000000 -1.000000
v -1.000000 1.000000 -1.000000
v 1.000000 -1.000000 1.000000
v 1.000000 1.000000 1.000000
v 1.000000 -1.000000 -1.000000
v 1.000000 1.000000 -1.000000
vt 0.749978 0.501810
vt 0.500022 0.751766
vt 0.500022 0.501810
vt 0.500022 1.001723
vt 0.250065 0.751766
vt 0.000108 0.751767
vt 0.250065 0.501810
vt 0.250065 0.251853
vt 0.749978 0.751766
vt 0.999935 0.501809
vt 0.999935 0.751766
vt 0.250065 1.001723
vt 0.000108 0.501810
vt 0.500022 0.251853
vn -1.0000 0.0000 0.0000
vn 0.0000 0.0000 -1.0000
vn 1.0000 0.0000 0.0000
vn 0.0000 0.0000 1.0000
vn 0.0000 -1.0000 0.0000
vn 0.0000 1.0000 0.0000
usemtl None
s off
f 2/1/1 3/2/1 1/3/1
f 4/4/2 7/5/2 3/2/2
f 8/6/3 5/7/3 7/5/3
f 6/8/4 1/3/4 5/7/4
f 7/5/5 1/3/5 3/2/5
f 4/9/6 6/10/6 8/11/6
f 2/1/1 4/9/1 3/2/1
f 4/4/2 8/12/2 7/5/2
f 8/6/3 6/13/3 5/7/3
f 6/8/4 2/14/4 1/3/4
f 7/5/5 5/7/5 1/3/5
f 4/9/6 2/1/6 6/10/6
