# Blender v2.79 (sub 0) OBJ File: ''
# www.blender.org
mtllib torus.mtl
o Torus
v 5.420120 0.000000 0.000000
v 5.102616 0.766521 0.000000
v 4.336096 1.084024 0.000000
v 3.569575 0.766521 0.000000
v 3.252072 0.000000 0.000000
v 3.569575 -0.766521 0.000000
v 4.336096 -1.084024 0.000000
v 5.102616 -0.766521 0.000000
v 5.007538 0.000000 -2.074190
v 4.714203 0.766521 -1.952686
v 4.006030 1.084024 -1.659352
v 3.297858 0.766521 -1.366017
v 3.004523 0.000000 -1.244514
v 3.297858 -0.766521 -1.366017
v 4.006030 -1.084024 -1.659352
v 4.714203 -0.766521 -1.952686
v 3.832603 0.000000 -3.832604
v 3.608094 0.766521 -3.608095
v 3.066082 1.084024 -3.066083
v 2.524071 0.766521 -2.524071
v 2.299562 0.000000 -2.299562
v 2.524071 -0.766521 -2.524071
v 3.066082 -1.084024 -3.066083
v 3.608094 -0.766521 -3.608095
v 2.074191 0.000000 -5.007537
v 1.952688 0.766521 -4.714202
v 1.659353 1.084024 -4.006030
v 1.366018 0.766521 -3.297857
v 1.244515 0.000000 -3.004522
v 1.366018 -0.766521 -3.297857
v 1.659353 -1.084024 -4.006030
v 1.952688 -0.766521 -4.714202
v 0.000000 0.000000 -5.420120
v 0.000000 0.766521 -5.102616
v 0.000000 1.084024 -4.336096
v 0.000000 0.766521 -3.569575
v 0.000000 0.000000 -3.252072
v 0.000000 -0.766521 -3.569575
v 0.000000 -1.084024 -4.336096
v 0.000000 -0.766521 -5.102616
v -2.074190 0.000000 -5.007538
v -1.952687 0.766521 -4.714202
v -1.659352 1.084024 -4.006030
v -1.366017 0.766521 -3.297857
v -1.244514 0.000000 -3.004522
v -1.366017 -0.766521 -3.297857
v -1.659352 -1.084024 -4.006030
v -1.952687 -0.766521 -4.714202
v -3.832604 0.000000 -3.832603
v -3.608095 0.766521 -3.608094
v -3.066083 1.084024 -3.066082
v -2.524071 0.766521 -2.524070
v -2.299562 0.000000 -2.299562
v -2.524071 -0.766521 -2.524070
v -3.066083 -1.084024 -3.066082
v -3.608095 -0.766521 -3.608094
v -5.007538 0.000000 -2.074190
v -4.714202 0.766521 -1.952687
v -4.006030 1.084024 -1.659352
v -3.297857 0.766521 -1.366017
v -3.004522 0.000000 -1.244514
v -3.297857 -0.766521 -1.366017
v -4.006030 -1.084024 -1.659352
v -4.714202 -0.766521 -1.952687
v -5.420120 0.000000 -0.000000
v -5.102616 0.766521 -0.000000
v -4.336096 1.084024 -0.000000
v -3.569575 0.766521 -0.000000
v -3.252072 0.000000 -0.000000
v -3.569575 -0.766521 -0.000000
v -4.336096 -1.084024 -0.000000
v -5.102616 -0.766521 -0.000000
v -5.007539 0.000000 2.074188
v -4.714203 0.766521 1.952685
v -4.006031 1.084024 1.659350
v -3.297858 0.766521 1.366016
v -3.004523 0.000000 1.244513
v -3.297858 -0.766521 1.366016
v -4.006031 -1.084024 1.659350
v -4.714203 -0.766521 1.952685
v -3.832604 0.000000 3.832603
v -3.608095 0.766521 3.608094
v -3.066083 1.084024 3.066082
v -2.524071 0.766521 2.524070
v -2.299562 0.000000 2.299562
v -2.524071 -0.766521 2.524070
v -3.066083 -1.084024 3.066082
v -3.608095 -0.766521 3.608094
v -2.074190 0.000000 5.007538
v -1.952687 0.766521 4.714202
v -1.659352 1.084024 4.006030
v -1.366017 0.766521 3.297857
v -1.244514 0.000000 3.004522
v -1.366017 -0.766521 3.297857
v -1.659352 -1.084024 4.006030
v -1.952687 -0.766521 4.714202
v 0.000000 0.000000 5.420120
v 0.000000 0.766521 5.102616
v 0.000000 1.084024 4.336096
v 0.000000 0.766521 3.569575
v 0.000000 0.000000 3.252072
v 0.000000 -0.766521 3.569575
v 0.000000 -1.084024 4.336096
v 0.000000 -0.766521 5.102616
v 2.074191 0.000000 5.007537
v 1.952688 0.766521 4.714202
v 1.659353 1.084024 4.006030
v 1.366018 0.766521 3.297857
v 1.244515 0.000000 3.004522
v 1.366018 -0.766521 3.297857
v 1.659353 -1.084024 4.006030
v 1.952688 -0.766521 4.714202
v 3.832601 0.000000 3.832606
v 3.608093 0.766521 3.608097
v 3.066081 1.084024 3.066085
v 2.524070 0.766521 2.524072
v 2.299561 0.000000 2.299563
v 2.524070 -0.766521 2.524072
v 3.066081 -1.084024 3.066085
v 3.608093 -0.766521 3.608097
v 5.007537 0.000000 2.074192
v 4.714202 0.766521 1.952689
v 4.006030 1.084024 1.659354
v 3.297857 0.766521 1.366019
v 3.004522 0.000000 1.244515
v 3.297857 -0.766521 1.366019
v 4.006030 -1.084024 1.659354
v 4.714202 -0.766521 1.952689
vt 1.000000 0.000000
vt 0.000000 1.000000
vt 0.000000 0.000000
vt 1.000000 0.000000
vt 0.000000 1.000000
vt 0.000000 0.000000
vt 0.000000 0.000000
vt 1.000000 1.000000
vt 0.000000 1.000000
vt 1.000000 0.000000
vt 0.000000 1.000000
vt 0.000000 0.000000
vt 1.000000 0.000000
vt 0.000000 1.000000
vt 0.000000 0.000000
vt 1.000000 0.000000
vt 0.000000 1.000000
vt 0.000000 0.000000
vt 1.000000 0.000000
vt 0.000000 1.000000
vt 0.000000 0.000000
vt 1.000000 0.000000
vt 0.000000 1.000000
vt 0.000000 0.000000
vt 0.000000 0.000000
vt 1.000000 1.000000
vt 0.000000 1.000000
vt 1.000000 0.000000
vt 0.000000 1.000000
vt 0.000000 0.000000
vt 1.000000 0.000000
vt 0.000000 1.000000
vt 0.000000 0.000000
vt 1.000000 0.000000
vt 0.000000 1.000000
vt 0.000000 0.000000
vt 1.000000 0.000000
vt 0.000000 1.000000
vt 0.000000 0.000000
vt 0.000000 0.000000
vt 1.000000 1.000000
vt 0.000000 1.000000
vt 0.000000 0.000000
vt 1.000000 1.000000
vt 0.000000 1.000000
vt 1.000000 0.000000
vt 0.000000 1.000000
vt 0.000000 0.000000
vt 1.000000 0.000000
vt 0.000000 1.000000
vt 0.000000 0.000000
vt 0.000000 0.000000
vt 1.000000 1.000000
vt 0.000000 1.000000
vt 1.000000 0.000000
vt 0.000000 1.000000
vt 0.000000 0.000000
vt 0.000000 0.000000
vt 1.000000 1.000000
vt 0.000000 1.000000
vt 1.000000 0.000000
vt 0.000000 1.000000
vt 0.000000 0.000000
vt 1.000000 0.000000
vt 0.000000 1.000000
vt 0.000000 0.000000
vt 1.000000 0.000000
vt 0.000000 1.000000
vt 0.000000 0.000000
vt 1.000000 0.000000
vt 0.000000 1.000000
vt 0.000000 0.000000
vt 1.000000 0.000000
vt 0.000000 1.000000
vt 0.000000 0.000000
vt 1.000000 0.000000
vt 0.000000 1.000000
vt 0.000000 0.000000
vt 1.000000 0.000000
vt 0.000000 1.000000
vt 0.000000 0.000000
vt 1.000000 0.000000
vt 0.000000 1.000000
vt 0.000000 0.000000
vt 1.000000 0.000000
vt 0.000000 1.000000
vt 0.000000 0.000000
vt 1.000000 0.000000
vt 0.000000 1.000000
vt 0.000000 0.000000
vt 0.000000 0.000000
vt 1.000000 1.000000
vt 0.000000 1.000000
vt 1.000000 0.000000
vt 0.000000 1.000000
vt 0.000000 0.000000
vt 1.000000 0.000000
vt 0.000000 1.000000
vt 0.000000 0.000000
vt 0.000000 0.000000
vt 1.000000 1.000000
vt 0.000000 1.000000
vt 0.000000 0.000000
vt 1.000000 1.000000
vt 0.000000 1.000000
vt 1.000000 0.000000
vt 0.000000 1.000000
vt 0.000000 0.000000
vt 0.000000 0.000000
vt 1.000000 1.000000
vt 0.000000 1.000000
vt 1.000000 0.000000
vt 0.000000 1.000000
vt 0.000000 0.000000
vt 1.000000 0.000000
vt 0.000000 1.000000
vt 0.000000 0.000000
vt 1.000000 0.000000
vt 0.000000 1.000000
vt 0.000000 0.000000
vt 1.000000 0.000000
vt 0.000000 1.000000
vt 0.000000 0.000000
vt 1.000000 0.000000
vt 0.000000 1.000000
vt 0.000000 0.000000
vt 1.000000 0.000000
vt 0.000000 1.000000
vt 0.000000 0.000000
vt 1.000000 0.000000
vt 0.000000 1.000000
vt 0.000000 0.000000
vt 0.000000 0.000000
vt 1.000000 1.000000
vt 0.000000 1.000000
vt 0.000000 0.000000
vt 1.000000 1.000000
vt 0.000000 1.000000
vt 1.000000 0.000000
vt 0.000000 1.000000
vt 0.000000 0.000000
vt 0.000000 0.000000
vt 1.000000 1.000000
vt 0.000000 1.000000
vt 0.000000 0.000000
vt 1.000000 1.000000
vt 0.000000 1.000000
vt 1.000000 0.000000
vt 0.000000 1.000000
vt 0.000000 0.000000
vt 0.000000 0.000000
vt 1.000000 1.000000
vt 0.000000 1.000000
vt 0.000000 0.000000
vt 1.000000 1.000000
vt 0.000000 1.000000
vt 1.000000 0.000000
vt 0.000000 1.000000
vt 0.000000 0.000000
vt 1.000000 0.000000
vt 0.000000 1.000000
vt 0.000000 0.000000
vt 1.000000 0.000000
vt 0.000000 1.000000
vt 0.000000 0.000000
vt 1.000000 0.000000
vt 0.000000 1.000000
vt 0.000000 0.000000
vt 1.000000 0.000000
vt 0.000000 1.000000
vt 0.000000 0.000000
vt 0.000000 0.000000
vt 1.000000 1.000000
vt 0.000000 1.000000
vt 1.000000 0.000000
vt 0.000000 1.000000
vt 0.000000 0.000000
vt 1.000000 0.000000
vt 0.000000 1.000000
vt 0.000000 0.000000
vt 1.000000 0.000000
vt 0.000000 1.000000
vt 0.000000 0.000000
vt 1.000000 0.000000
vt 0.000000 1.000000
vt 0.000000 0.000000
vt 1.000000 0.000000
vt 0.000000 1.000000
vt 0.000000 0.000000
vt 1.000000 0.000000
vt 0.000000 1.000000
vt 0.000000 0.000000
vt 1.000000 0.000000
vt 0.000000 1.000000
vt 0.000000 0.000000
vt 0.000000 0.000000
vt 1.000000 1.000000
vt 0.000000 1.000000
vt 1.000000 0.000000
vt 0.000000 1.000000
vt 0.000000 0.000000
vt 1.000000 0.000000
vt 0.000000 1.000000
vt 0.000000 0.000000
vt 1.000000 0.000000
vt 0.000000 1.000000
vt 0.000000 0.000000
vt 1.000000 0.000000
vt 0.000000 1.000000
vt 0.000000 0.000000
vt 1.000000 0.000000
vt 0.000000 1.000000
vt 0.000000 0.000000
vt 0.000000 0.000000
vt 1.000000 1.000000
vt 0.000000 1.000000
vt 1.000000 0.000000
vt 0.000000 1.000000
vt 0.000000 0.000000
vt 1.000000 0.000000
vt 0.000000 1.000000
vt 0.000000 0.000000
vt 1.000000 0.000000
vt 0.000000 1.000000
vt 0.000000 0.000000
vt 1.000000 0.000000
vt 0.000000 1.000000
vt 0.000000 0.000000
vt 0.000000 0.000000
vt 1.000000 1.000000
vt 0.000000 1.000000
vt 0.000000 0.000000
vt 1.000000 1.000000
vt 0.000000 1.000000
vt 0.000000 0.000000
vt 1.000000 1.000000
vt 0.000000 1.000000
vt 0.000000 0.000000
vt 1.000000 1.000000
vt 0.000000 1.000000
vt 0.000000 0.000000
vt 1.000000 1.000000
vt 0.000000 1.000000
vt 1.000000 0.000000
vt 0.000000 1.000000
vt 0.000000 0.000000
vt 0.000000 0.000000
vt 1.000000 1.000000
vt 0.000000 1.000000
vt 0.000000 0.000000
vt 1.000000 1.000000
vt 0.000000 1.000000
vt 1.000000 0.000000
vt 0.000000 1.000000
vt 0.000000 0.000000
vt 1.000000 0.000000
vt 0.000000 1.000000
vt 0.000000 0.000000
vt 1.000000 0.000000
vt 0.000000 1.000000
vt 0.000000 0.000000
vt 1.000000 0.000000
vt 0.000000 1.000000
vt 0.000000 0.000000
vt 1.000000 0.000000
vt 0.000000 1.000000
vt 0.000000 0.000000
vt 1.000000 0.000000
vt 0.000000 1.000000
vt 0.000000 0.000000
vt 1.000000 0.000000
vt 0.000000 1.000000
vt 0.000000 0.000000
vt 0.000000 0.000000
vt 1.000000 1.000000
vt 0.000000 1.000000
vt 1.000000 0.000000
vt 0.000000 1.000000
vt 0.000000 0.000000
vt 0.000000 0.000000
vt 1.000000 1.000000
vt 0.000000 1.000000
vt 0.000000 0.000000
vt 1.000000 1.000000
vt 0.000000 1.000000
vt 1.000000 0.000000
vt 0.000000 1.000000
vt 0.000000 0.000000
vt 1.000000 0.000000
vt 0.000000 1.000000
vt 0.000000 0.000000
vt 0.000000 0.000000
vt 1.000000 1.000000
vt 0.000000 1.000000
vt 1.000000 0.000000
vt 0.000000 1.000000
vt 0.000000 0.000000
vt 1.000000 0.000000
vt 0.000000 1.000000
vt 0.000000 0.000000
vt 1.000000 0.000000
vt 0.000000 1.000000
vt 0.000000 0.000000
vt 1.000000 0.000000
vt 0.000000 1.000000
vt 0.000000 0.000000
vt 1.000000 0.000000
vt 0.000000 1.000000
vt 0.000000 0.000000
vt 1.000000 0.000000
vt 0.000000 1.000000
vt 0.000000 0.000000
vt 0.000000 0.000000
vt 1.000000 1.000000
vt 0.000000 1.000000
vt 1.000000 0.000000
vt 0.000000 1.000000
vt 0.000000 0.000000
vt 0.000000 0.000000
vt 1.000000 1.000000
vt 0.000000 1.000000
vt 0.000000 0.000000
vt 1.000000 1.000000
vt 0.000000 1.000000
vt 1.000000 0.000000
vt 0.000000 1.000000
vt 0.000000 0.000000
vt 1.000000 0.000000
vt 0.000000 1.000000
vt 0.000000 0.000000
vt 0.000000 0.000000
vt 1.000000 1.000000
vt 0.000000 1.000000
vt 1.000000 0.000000
vt 0.000000 1.000000
vt 0.000000 0.000000
vt 0.000000 0.000000
vt 1.000000 1.000000
vt 0.000000 1.000000
vt 1.000000 0.000000
vt 0.000000 1.000000
vt 0.000000 0.000000
vt 0.000000 0.000000
vt 1.000000 1.000000
vt 0.000000 1.000000
vt 1.000000 0.000000
vt 0.000000 1.000000
vt 0.000000 0.000000
vt 1.000000 0.000000
vt 0.000000 1.000000
vt 0.000000 0.000000
vt 1.000000 0.000000
vt 0.000000 1.000000
vt 0.000000 0.000000
vt 0.000000 0.000000
vt 1.000000 1.000000
vt 0.000000 1.000000
vt 1.000000 0.000000
vt 0.000000 1.000000
vt 0.000000 0.000000
vt 1.000000 0.000000
vt 0.000000 1.000000
vt 0.000000 0.000000
vt 1.000000 0.000000
vt 0.000000 1.000000
vt 0.000000 0.000000
vt 0.000000 0.000000
vt 1.000000 1.000000
vt 0.000000 1.000000
vt 0.000000 0.000000
vt 1.000000 1.000000
vt 0.000000 1.000000
vt 1.000000 0.000000
vt 0.000000 1.000000
vt 0.000000 0.000000
vt 1.000000 0.000000
vt 0.000000 1.000000
vt 0.000000 0.000000
vt 0.000000 0.000000
vt 1.000000 1.000000
vt 0.000000 1.000000
vt 1.000000 0.000000
vt 0.000000 1.000000
vt 0.000000 0.000000
vt 1.000000 1.000000
vt 1.000000 1.000000
vt 1.000000 0.000000
vt 1.000000 1.000000
vt 1.000000 1.000000
vt 1.000000 1.000000
vt 1.000000 1.000000
vt 1.000000 1.000000
vt 1.000000 0.000000
vt 1.000000 1.000000
vt 1.000000 1.000000
vt 1.000000 1.000000
vt 1.000000 1.000000
vt 1.000000 0.000000
vt 1.000000 0.000000
vt 1.000000 1.000000
vt 1.000000 1.000000
vt 1.000000 0.000000
vt 1.000000 1.000000
vt 1.000000 0.000000
vt 1.000000 1.000000
vt 1.000000 1.000000
vt 1.000000 1.000000
vt 1.000000 1.000000
vt 1.000000 1.000000
vt 1.000000 1.000000
vt 1.000000 1.000000
vt 1.000000 1.000000
vt 1.000000 1.000000
vt 1.000000 1.000000
vt 1.000000 0.000000
vt 1.000000 1.000000
vt 1.000000 1.000000
vt 1.000000 0.000000
vt 1.000000 0.000000
vt 1.000000 1.000000
vt 1.000000 0.000000
vt 1.000000 1.000000
vt 1.000000 1.000000
vt 1.000000 1.000000
vt 1.000000 1.000000
vt 1.000000 1.000000
vt 1.000000 1.000000
vt 1.000000 1.000000
vt 1.000000 0.000000
vt 1.000000 0.000000
vt 1.000000 1.000000
vt 1.000000 0.000000
vt 1.000000 0.000000
vt 1.000000 1.000000
vt 1.000000 0.000000
vt 1.000000 0.000000
vt 1.000000 1.000000
vt 1.000000 1.000000
vt 1.000000 1.000000
vt 1.000000 1.000000
vt 1.000000 1.000000
vt 1.000000 0.000000
vt 1.000000 1.000000
vt 1.000000 1.000000
vt 1.000000 1.000000
vt 1.000000 1.000000
vt 1.000000 1.000000
vt 1.000000 1.000000
vt 1.000000 1.000000
vt 1.000000 0.000000
vt 1.000000 1.000000
vt 1.000000 1.000000
vt 1.000000 1.000000
vt 1.000000 1.000000
vt 1.000000 1.000000
vt 1.000000 0.000000
vt 1.000000 1.000000
vt 1.000000 1.000000
vt 1.000000 1.000000
vt 1.000000 1.000000
vt 1.000000 0.000000
vt 1.000000 0.000000
vt 1.000000 0.000000
vt 1.000000 0.000000
vt 1.000000 0.000000
vt 1.000000 1.000000
vt 1.000000 0.000000
vt 1.000000 0.000000
vt 1.000000 1.000000
vt 1.000000 1.000000
vt 1.000000 1.000000
vt 1.000000 1.000000
vt 1.000000 1.000000
vt 1.000000 1.000000
vt 1.000000 1.000000
vt 1.000000 0.000000
vt 1.000000 1.000000
vt 1.000000 0.000000
vt 1.000000 0.000000
vt 1.000000 1.000000
vt 1.000000 1.000000
vt 1.000000 0.000000
vt 1.000000 1.000000
vt 1.000000 1.000000
vt 1.000000 1.000000
vt 1.000000 1.000000
vt 1.000000 1.000000
vt 1.000000 1.000000
vt 1.000000 0.000000
vt 1.000000 1.000000
vt 1.000000 0.000000
vt 1.000000 0.000000
vt 1.000000 1.000000
vt 1.000000 1.000000
vt 1.000000 0.000000
vt 1.000000 1.000000
vt 1.000000 0.000000
vt 1.000000 1.000000
vt 1.000000 0.000000
vt 1.000000 1.000000
vt 1.000000 1.000000
vt 1.000000 1.000000
vt 1.000000 0.000000
vt 1.000000 1.000000
vt 1.000000 1.000000
vt 1.000000 1.000000
vt 1.000000 0.000000
vt 1.000000 0.000000
vt 1.000000 1.000000
vt 1.000000 1.000000
vt 1.000000 0.000000
vt 1.000000 1.000000
vn 0.9087 0.3764 -0.1807
vn 0.3816 0.9212 -0.0759
vn -0.3816 0.9212 0.0759
vn -0.9087 0.3764 0.1807
vn -0.9087 -0.3764 0.1807
vn -0.3816 -0.9212 0.0759
vn 0.3816 -0.9212 -0.0759
vn 0.9087 -0.3764 -0.1807
vn 0.7703 0.3764 -0.5147
vn 0.3235 0.9212 -0.2161
vn -0.3235 0.9212 0.2161
vn -0.7703 0.3764 0.5147
vn -0.7703 -0.3764 0.5147
vn -0.3235 -0.9212 0.2161
vn 0.3235 -0.9212 -0.2161
vn 0.7703 -0.3764 -0.5147
vn 0.5147 0.3764 -0.7703
vn 0.2161 0.9212 -0.3235
vn -0.2161 0.9212 0.3235
vn -0.5147 0.3764 0.7703
vn -0.5147 -0.3764 0.7703
vn -0.2161 -0.9212 0.3235
vn 0.2161 -0.9212 -0.3235
vn 0.5147 -0.3764 -0.7703
vn 0.1807 0.3764 -0.9087
vn 0.0759 0.9212 -0.3816
vn -0.0759 0.9212 0.3816
vn -0.1807 0.3764 0.9087
vn -0.1807 -0.3764 0.9087
vn -0.0759 -0.9212 0.3816
vn 0.0759 -0.9212 -0.3816
vn 0.1807 -0.3764 -0.9087
vn -0.1807 0.3764 -0.9087
vn -0.0759 0.9212 -0.3816
vn 0.0759 0.9212 0.3816
vn 0.1807 0.3764 0.9087
vn 0.1807 -0.3764 0.9087
vn 0.0759 -0.9212 0.3816
vn -0.0759 -0.9212 -0.3816
vn -0.1807 -0.3764 -0.9087
vn -0.5147 0.3764 -0.7703
vn -0.2161 0.9212 -0.3235
vn 0.2161 0.9212 0.3235
vn 0.5147 0.3764 0.7703
vn 0.5147 -0.3764 0.7703
vn 0.2161 -0.9212 0.3235
vn -0.2161 -0.9212 -0.3235
vn -0.5147 -0.3764 -0.7703
vn -0.7703 0.3764 -0.5147
vn -0.3235 0.9212 -0.2161
vn 0.3235 0.9212 0.2161
vn 0.7703 0.3764 0.5147
vn 0.7703 -0.3764 0.5147
vn 0.3235 -0.9212 0.2161
vn -0.3235 -0.9212 -0.2161
vn -0.7703 -0.3764 -0.5147
vn -0.9087 0.3764 -0.1807
vn -0.3816 0.9212 -0.0759
vn 0.3816 0.9212 0.0759
vn 0.9087 0.3764 0.1807
vn 0.9087 -0.3764 0.1807
vn 0.3816 -0.9212 0.0759
vn -0.3816 -0.9212 -0.0759
vn -0.9087 -0.3764 -0.1807
usemtl None
s off
f 9/1/1 2/2/1 1/3/1
f 10/4/2 3/5/2 2/6/2
f 3/7/3 12/8/3 4/9/3
f 12/10/4 5/11/4 4/12/4
f 13/13/5 6/14/5 5/15/5
f 14/16/6 7/17/6 6/18/6
f 15/19/7 8/20/7 7/21/7
f 16/22/8 1/23/8 8/24/8
f 9/25/9 18/26/9 10/27/9
f 18/28/10 11/29/10 10/30/10
f 19/31/11 12/32/11 11/33/11
f 20/34/12 13/35/12 12/36/12
f 21/37/13 14/38/13 13/39/13
f 14/40/14 23/41/14 15/42/14
f 15/43/15 24/44/15 16/45/15
f 24/46/16 9/47/16 16/48/16
f 25/49/17 18/50/17 17/51/17
f 18/52/18 27/53/18 19/54/18
f 27/55/19 20/56/19 19/57/19
f 20/58/20 29/59/20 21/60/20
f 29/61/21 22/62/21 21/63/21
f 30/64/22 23/65/22 22/66/22
f 31/67/23 24/68/23 23/69/23
f 32/70/24 17/71/24 24/72/24
f 33/73/25 26/74/25 25/75/25
f 34/76/26 27/77/26 26/78/26
f 35/79/27 28/80/27 27/81/27
f 36/82/28 29/83/28 28/84/28
f 37/85/29 30/86/29 29/87/29
f 38/88/30 31/89/30 30/90/30
f 31/91/31 40/92/31 32/93/31
f 40/94/32 25/95/32 32/96/32
f 41/97/33 34/98/33 33/99/33
f 34/100/34 43/101/34 35/102/34
f 35/103/35 44/104/35 36/105/35
f 44/106/36 37/107/36 36/108/36
f 37/109/37 46/110/37 38/111/37
f 46/112/38 39/113/38 38/114/38
f 47/115/39 40/116/39 39/117/39
f 48/118/40 33/119/40 40/120/40
f 49/121/41 42/122/41 41/123/41
f 50/124/42 43/125/42 42/126/42
f 51/127/43 44/128/43 43/129/43
f 52/130/44 45/131/44 44/132/44
f 45/133/45 54/134/45 46/135/45
f 46/136/46 55/137/46 47/138/46
f 55/139/47 48/140/47 47/141/47
f 48/142/48 49/143/48 41/144/48
f 49/145/49 58/146/49 50/147/49
f 58/148/50 51/149/50 50/150/50
f 51/151/51 60/152/51 52/153/51
f 52/154/52 61/155/52 53/156/52
f 61/157/53 54/158/53 53/159/53
f 62/160/54 55/161/54 54/162/54
f 63/163/55 56/164/55 55/165/55
f 64/166/56 49/167/56 56/168/56
f 65/169/57 58/170/57 57/171/57
f 58/172/58 67/173/58 59/174/58
f 67/175/59 60/176/59 59/177/59
f 68/178/60 61/179/60 60/180/60
f 69/181/61 62/182/61 61/183/61
f 70/184/62 63/185/62 62/186/62
f 71/187/63 64/188/63 63/189/63
f 72/190/64 57/191/64 64/192/64
f 73/193/4 66/194/4 65/195/4
f 66/196/3 75/197/3 67/198/3
f 75/199/2 68/200/2 67/201/2
f 76/202/1 69/203/1 68/204/1
f 77/205/8 70/206/8 69/207/8
f 78/208/7 71/209/7 70/210/7
f 79/211/6 72/212/6 71/213/6
f 72/214/5 73/215/5 65/216/5
f 81/217/12 74/218/12 73/219/12
f 82/220/11 75/221/11 74/222/11
f 83/223/10 76/224/10 75/225/10
f 84/226/9 77/227/9 76/228/9
f 77/229/16 86/230/16 78/231/16
f 78/232/15 87/233/15 79/234/15
f 79/235/14 88/236/14 80/237/14
f 80/238/13 81/239/13 73/240/13
f 81/241/20 90/242/20 82/243/20
f 90/244/19 83/245/19 82/246/19
f 83/247/18 92/248/18 84/249/18
f 84/250/17 93/251/17 85/252/17
f 93/253/24 86/254/24 85/255/24
f 94/256/23 87/257/23 86/258/23
f 95/259/22 88/260/22 87/261/22
f 96/262/21 81/263/21 88/264/21
f 97/265/28 90/266/28 89/267/28
f 98/268/27 91/269/27 90/270/27
f 99/271/26 92/272/26 91/273/26
f 92/274/25 101/275/25 93/276/25
f 101/277/32 94/278/32 93/279/32
f 94/280/31 103/281/31 95/282/31
f 95/283/30 104/284/30 96/285/30
f 104/286/29 89/287/29 96/288/29
f 105/289/36 98/290/36 97/291/36
f 98/292/35 107/293/35 99/294/35
f 107/295/34 100/296/34 99/297/34
f 108/298/33 101/299/33 100/300/33
f 109/301/40 102/302/40 101/303/40
f 110/304/39 103/305/39 102/306/39
f 111/307/38 104/308/38 103/309/38
f 112/310/37 97/311/37 104/312/37
f 105/313/44 114/314/44 106/315/44
f 114/316/43 107/317/43 106/318/43
f 107/319/42 116/320/42 108/321/42
f 108/322/41 117/323/41 109/324/41
f 117/325/48 110/326/48 109/327/48
f 118/328/47 111/329/47 110/330/47
f 111/331/46 120/332/46 112/333/46
f 120/334/45 105/335/45 112/336/45
f 113/337/52 122/338/52 114/339/52
f 122/340/51 115/341/51 114/342/51
f 115/343/50 124/344/50 116/345/50
f 124/346/49 117/347/49 116/348/49
f 125/349/56 118/350/56 117/351/56
f 126/352/55 119/353/55 118/354/55
f 119/355/54 128/356/54 120/357/54
f 128/358/53 113/359/53 120/360/53
f 1/361/60 122/362/60 121/363/60
f 2/364/59 123/365/59 122/366/59
f 123/367/58 4/368/58 124/369/58
f 124/370/57 5/371/57 125/372/57
f 5/373/64 126/374/64 125/375/64
f 6/376/63 127/377/63 126/378/63
f 127/379/62 8/380/62 128/381/62
f 8/382/61 121/383/61 128/384/61
f 9/1/1 10/385/1 2/2/1
f 10/4/2 11/386/2 3/5/2
f 3/7/3 11/387/3 12/8/3
f 12/10/4 13/388/4 5/11/4
f 13/13/5 14/389/5 6/14/5
f 14/16/6 15/390/6 7/17/6
f 15/19/7 16/391/7 8/20/7
f 16/22/8 9/392/8 1/23/8
f 9/25/9 17/393/9 18/26/9
f 18/28/10 19/394/10 11/29/10
f 19/31/11 20/395/11 12/32/11
f 20/34/12 21/396/12 13/35/12
f 21/37/13 22/397/13 14/38/13
f 14/40/14 22/398/14 23/41/14
f 15/43/15 23/399/15 24/44/15
f 24/46/16 17/400/16 9/47/16
f 25/49/17 26/401/17 18/50/17
f 18/52/18 26/402/18 27/53/18
f 27/55/19 28/403/19 20/56/19
f 20/58/20 28/404/20 29/59/20
f 29/61/21 30/405/21 22/62/21
f 30/64/22 31/406/22 23/65/22
f 31/67/23 32/407/23 24/68/23
f 32/70/24 25/408/24 17/71/24
f 33/73/25 34/409/25 26/74/25
f 34/76/26 35/410/26 27/77/26
f 35/79/27 36/411/27 28/80/27
f 36/82/28 37/412/28 29/83/28
f 37/85/29 38/413/29 30/86/29
f 38/88/30 39/414/30 31/89/30
f 31/91/31 39/415/31 40/92/31
f 40/94/32 33/416/32 25/95/32
f 41/97/33 42/417/33 34/98/33
f 34/100/34 42/418/34 43/101/34
f 35/103/35 43/419/35 44/104/35
f 44/106/36 45/420/36 37/107/36
f 37/109/37 45/421/37 46/110/37
f 46/112/38 47/422/38 39/113/38
f 47/115/39 48/423/39 40/116/39
f 48/118/40 41/424/40 33/119/40
f 49/121/41 50/425/41 42/122/41
f 50/124/42 51/426/42 43/125/42
f 51/127/43 52/427/43 44/128/43
f 52/130/44 53/428/44 45/131/44
f 45/133/45 53/429/45 54/134/45
f 46/136/46 54/430/46 55/137/46
f 55/139/47 56/431/47 48/140/47
f 48/142/48 56/432/48 49/143/48
f 49/145/49 57/433/49 58/146/49
f 58/148/50 59/434/50 51/149/50
f 51/151/51 59/435/51 60/152/51
f 52/154/52 60/436/52 61/155/52
f 61/157/53 62/437/53 54/158/53
f 62/160/54 63/438/54 55/161/54
f 63/163/55 64/439/55 56/164/55
f 64/166/56 57/440/56 49/167/56
f 65/169/57 66/441/57 58/170/57
f 58/172/58 66/442/58 67/173/58
f 67/175/59 68/443/59 60/176/59
f 68/178/60 69/444/60 61/179/60
f 69/181/61 70/445/61 62/182/61
f 70/184/62 71/446/62 63/185/62
f 71/187/63 72/447/63 64/188/63
f 72/190/64 65/448/64 57/191/64
f 73/193/4 74/449/4 66/194/4
f 66/196/3 74/450/3 75/197/3
f 75/199/2 76/451/2 68/200/2
f 76/202/1 77/452/1 69/203/1
f 77/205/8 78/453/8 70/206/8
f 78/208/7 79/454/7 71/209/7
f 79/211/6 80/455/6 72/212/6
f 72/214/5 80/456/5 73/215/5
f 81/217/12 82/457/12 74/218/12
f 82/220/11 83/458/11 75/221/11
f 83/223/10 84/459/10 76/224/10
f 84/226/9 85/460/9 77/227/9
f 77/229/16 85/461/16 86/230/16
f 78/232/15 86/462/15 87/233/15
f 79/235/14 87/463/14 88/236/14
f 80/238/13 88/464/13 81/239/13
f 81/241/20 89/465/20 90/242/20
f 90/244/19 91/466/19 83/245/19
f 83/247/18 91/467/18 92/248/18
f 84/250/17 92/468/17 93/251/17
f 93/253/24 94/469/24 86/254/24
f 94/256/23 95/470/23 87/257/23
f 95/259/22 96/471/22 88/260/22
f 96/262/21 89/472/21 81/263/21
f 97/265/28 98/473/28 90/266/28
f 98/268/27 99/474/27 91/269/27
f 99/271/26 100/475/26 92/272/26
f 92/274/25 100/476/25 101/275/25
f 101/277/32 102/477/32 94/278/32
f 94/280/31 102/478/31 103/281/31
f 95/283/30 103/479/30 104/284/30
f 104/286/29 97/480/29 89/287/29
f 105/289/36 106/481/36 98/290/36
f 98/292/35 106/482/35 107/293/35
f 107/295/34 108/483/34 100/296/34
f 108/298/33 109/484/33 101/299/33
f 109/301/40 110/485/40 102/302/40
f 110/304/39 111/486/39 103/305/39
f 111/307/38 112/487/38 104/308/38
f 112/310/37 105/488/37 97/311/37
f 105/313/44 113/489/44 114/314/44
f 114/316/43 115/490/43 107/317/43
f 107/319/42 115/491/42 116/320/42
f 108/322/41 116/492/41 117/323/41
f 117/325/48 118/493/48 110/326/48
f 118/328/47 119/494/47 111/329/47
f 111/331/46 119/495/46 120/332/46
f 120/334/45 113/496/45 105/335/45
f 113/337/52 121/497/52 122/338/52
f 122/340/51 123/498/51 115/341/51
f 115/343/50 123/499/50 124/344/50
f 124/346/49 125/500/49 117/347/49
f 125/349/56 126/501/56 118/350/56
f 126/352/55 127/502/55 119/353/55
f 119/355/54 127/503/54 128/356/54
f 128/358/53 121/504/53 113/359/53
f 1/361/60 2/505/60 122/362/60
f 2/364/59 3/506/59 123/365/59
f 123/367/58 3/507/58 4/368/58
f 124/370/57 4/508/57 5/371/57
f 5/373/64 6/509/64 126/374/64
f 6/376/63 7/510/63 127/377/63
f 127/379/62 7/511/62 8/380/62
f 8/382/61 1/512/61 121/383/61
