# Blender v2.79 (sub 0) OBJ File: ''
# www.blender.org
mtllib chest_smooth.mtl
o Cube
v -1.000000 -1.000000 1.000000
v -1.000000 1.000000 1.000000
v -1.000000 -1.000000 -1.000000
v -1.000000 1.000000 -1.000000
v 1.000000 -1.000000 1.000000
v 1.000000 1.000000 1.000000
v 1.000000 -1.000000 -1.000000
v 1.000000 1.000000 -1.000000
vt 0.749978 0.501810
vt 0.500022 0.751766
vt 0.500022 0.501810
vt 0.500022 1.001723
vt 0.250065 0.751766
vt 0.000108 0.751767
vt 0.250065 0.501810
vt 0.250065 0.251853
vt 0.749978 0.751766
vt 0.999935 0.501809
vt 0.999935 0.751766
vt 0.250065 1.001723
vt 0.000108 0.501810
vt 0.500022 0.251853
vn -0.5773 0.5773 0.5773
vn -0.5773 -0.5773 -0.5773
vn -0.5773 -0.5773 0.5773
vn -0.5773 0.5773 -0.5773
vn 0.5773 -0.5773 -0.5773
vn 0.5773 0.5773 -0.5773
vn 0.5773 -0.5773 0.5773
vn 0.5773 0.5773 0.5773
usemtl None
s 1
f 2/1/1 3/2/2 1/3/3
f 4/4/4 7/5/5 3/2/2
f 8/6/6 5/7/7 7/5/5
f 6/8/8 1/3/3 5/7/7
f 7/5/5 1/3/3 3/2/2
f 4/9/4 6/10/8 8/11/6
f 2/1/1 4/9/4 3/2/2
f 4/4/4 8/12/6 7/5/5
f 8/6/6 6/13/8 5/7/7
f 6/8/8 2/14/1 1/3/3
f 7/5/5 5/7/7 1/3/3
f 4/9/4 2/1/1 6/10/8
