# Blender v2.79 (sub 0) OBJ File: ''
# www.blender.org
mtllib chili_smooth.mtl
o Cube_Cube.001
v -4.580719 -4.580719 4.580719
v -4.580719 4.580719 4.580719
v -4.580719 -4.580719 -4.580719
v -4.580719 4.580719 -4.580719
v 4.580719 -4.580719 4.580719
v 4.580719 4.580719 4.580719
v 4.580719 -4.580719 -4.580719
v 4.580719 4.580719 -4.580719
vt 0.250043 0.250043
vt 0.500000 0.500000
vt 0.250043 0.500000
vt 0.500000 0.250043
vt 0.749957 0.500000
vt 0.500000 0.999913
vt 0.250043 0.749957
vt 0.500000 0.749957
vt 0.000087 0.250043
vt 0.000087 0.500000
vt 0.250043 0.000087
vt 0.500000 0.000087
vt 0.749957 0.250043
vt 0.250043 0.999913
vn -0.5773 0.5773 0.5773
vn -0.5773 -0.5773 -0.5773
vn -0.5773 -0.5773 0.5773
vn -0.5773 0.5773 -0.5773
vn 0.5773 -0.5773 -0.5773
vn 0.5773 0.5773 -0.5773
vn 0.5773 -0.5773 0.5773
vn 0.5773 0.5773 0.5773
usemtl None
s 1
f 2/1/1 3/2/2 1/3/3
f 4/4/4 7/5/5 3/2/2
f 8/6/6 5/7/7 7/8/5
f 6/9/8 1/3/3 5/10/7
f 7/8/5 1/3/3 3/2/2
f 4/4/4 6/11/8 8/12/6
f 2/1/1 4/4/4 3/2/2
f 4/4/4 8/13/6 7/5/5
f 8/6/6 6/14/8 5/7/7
f 6/9/8 2/1/1 1/3/3
f 7/8/5 5/7/7 1/3/3
f 4/4/4 2/1/1 6/11/8
